<?xml version="1.0" standalone="no"?>
<!DOCTYPE svg PUBLIC "-//W3C//DTD SVG 20010904//EN"
 "http://www.w3.org/TR/2001/REC-SVG-20010904/DTD/svg10.dtd">
<svg version="1.0" xmlns="http://www.w3.org/2000/svg"
 width="105.000000pt" height="105.000000pt" viewBox="0 0 105.000000 105.000000"
 preserveAspectRatio="xMidYMid meet">
<metadata>
Created by potrace 1.14, written by Peter Selinger 2001-2017
</metadata>
<g transform="translate(0.000000,105.000000) scale(0.100000,-0.100000)"
fill="#000000" stroke="none">
<path d="M522 1002 c0 -72 -2 -82 -17 -82 -9 0 -18 7 -21 15 -6 15 -25 21 -23
8 4 -25 -3 -35 -21 -30 -12 3 -23 -1 -28 -9 -11 -19 -46 -13 -69 12 -10 11
-15 15 -11 9 6 -11 11 -41 9 -63 -1 -8 -8 -11 -20 -7 -15 5 -21 0 -26 -25 -7
-33 -26 -36 -31 -5 -1 10 -11 25 -20 34 -17 15 -17 15 -5 -1 14 -19 25 -69 14
-67 -21 4 -24 -3 -10 -25 13 -20 14 -25 3 -29 -8 -3 -19 0 -25 6 -6 6 -14 8
-18 4 -3 -4 2 -13 12 -21 10 -7 15 -18 11 -24 -4 -7 -3 -12 3 -12 5 0 13 5 16
10 8 12 35 -6 35 -22 0 -6 -6 -6 -14 1 -10 8 -21 8 -40 1 -19 -7 -34 -7 -48 1
-14 8 -23 8 -31 0 -7 -7 3 -14 35 -22 l44 -12 -18 -36 c-20 -38 -17 -61 13
-103 l19 -28 -27 11 c-15 6 -31 16 -35 22 -5 8 -8 7 -8 -4 0 -15 -28 -31 -75
-43 -11 -2 7 -2 40 1 49 4 58 3 47 -8 -16 -17 -15 -30 2 -23 15 6 20 -42 5
-52 -16 -9 0 -22 21 -17 29 8 26 -21 -5 -41 -14 -9 -25 -21 -25 -27 0 -8 4 -8
13 -2 6 6 24 13 40 17 20 5 27 12 27 31 0 14 4 25 9 25 6 0 8 -9 6 -20 -2 -11
1 -20 8 -20 6 0 1 -7 -11 -16 -26 -18 -29 -34 -4 -34 15 -1 15 -2 -2 -15 -11
-8 -17 -18 -13 -22 4 -3 16 2 27 12 16 14 22 15 35 5 21 -17 19 -40 -6 -66
-12 -13 -17 -24 -10 -28 5 -4 18 6 28 21 10 15 25 34 33 40 13 11 13 14 1 22
-9 6 -11 15 -6 27 7 17 9 16 15 -6 4 -14 5 -42 3 -62 -4 -23 -1 -38 5 -38 6 0
12 5 14 12 8 22 37 1 31 -23 -4 -15 -3 -20 5 -15 8 5 10 25 6 61 -6 46 -4 54
13 64 14 7 23 7 31 -1 17 -17 15 -33 -2 -19 -19 16 -35 -11 -28 -45 5 -27 12
-30 30 -12 9 9 12 9 12 -3 0 -8 -5 -20 -11 -26 -7 -7 -6 -15 5 -26 9 -9 16
-22 17 -29 1 -7 4 -2 8 12 9 33 51 41 51 11 0 -12 5 -21 11 -21 6 0 9 9 6 20
-3 10 1 24 9 31 14 12 19 3 15 -28 -1 -6 3 -14 9 -18 6 -4 10 6 10 23 0 17 -6
32 -13 35 -8 3 -13 22 -12 51 0 47 15 73 34 62 16 -10 13 -26 -4 -26 -18 0
-20 -16 -2 -24 10 -5 10 -7 -1 -12 -14 -7 -16 -34 -2 -34 5 0 24 -16 43 -35
28 -29 36 -33 41 -19 10 27 7 34 -19 34 -14 0 -25 3 -26 8 -6 66 -3 92 10 97
8 3 19 1 25 -5 7 -7 5 -10 -7 -10 -20 0 -23 -16 -4 -24 10 -5 10 -7 0 -12 -23
-10 -14 -34 13 -34 20 0 25 5 24 23 -5 53 0 66 20 62 32 -6 41 -15 35 -36 -4
-13 5 -30 31 -56 l37 -38 -22 42 c-27 53 -26 57 3 49 18 -4 23 -2 22 11 0 10
9 22 21 27 14 7 21 18 20 35 -1 17 3 26 13 27 8 1 22 2 30 3 11 1 11 4 2 13
-13 13 -16 29 -4 26 8 -3 11 12 5 29 -9 22 2 47 25 59 41 20 49 34 22 35 -25
1 -104 6 -127 8 -21 2 -15 14 42 75 58 62 70 96 34 96 -26 0 -20 22 9 35 33
15 29 37 -4 24 -31 -11 -42 -5 -25 15 13 15 -1 32 -18 22 -4 -3 -16 1 -26 8
-21 15 -16 27 33 80 42 47 27 47 -21 0 -45 -44 -56 -41 -22 6 14 19 25 36 25
39 0 3 -10 -7 -21 -22 -17 -22 -24 -25 -35 -16 -8 6 -20 9 -28 6 -17 -7 -45
23 -39 41 7 18 -14 15 -21 -4 -3 -8 -10 -12 -16 -9 -6 4 -8 10 -5 15 3 5 1 11
-5 15 -5 3 -10 1 -10 -4 0 -16 -36 -13 -53 3 -9 9 -12 26 -9 43 3 21 2 25 -7
17 -7 -6 -13 -21 -14 -33 -1 -13 -8 -21 -20 -21 -10 0 -16 4 -12 9 3 5 1 12
-4 15 -5 3 -12 -6 -16 -21 -9 -36 -25 -12 -25 39 0 20 -4 39 -9 42 -4 3 -8 -7
-9 -22z m-154 -349 c-24 -26 -33 -24 -23 6 3 11 14 19 25 18 19 -1 19 -2 -2
-24z m284 -53 c3 -68 1 -80 -14 -84 -15 -3 -18 3 -18 38 0 63 -13 65 -31 4
l-16 -53 -19 53 c-20 54 -29 64 -37 35 -3 -10 -5 3 -6 30 -1 41 2 47 19 47 13
0 25 -12 36 -37 l16 -38 15 43 c10 29 20 42 33 42 16 0 19 -10 22 -80z m238
75 c0 -3 -9 -15 -20 -27 l-20 -22 0 21 c0 19 11 30 33 32 4 1 7 -1 7 -4z
m-394 -17 c3 -4 -3 -15 -13 -25 -26 -27 -96 -113 -92 -114 43 -8 75 -7 85 2
11 9 14 8 14 -5 0 -14 -10 -16 -76 -11 -42 2 -79 7 -82 9 -3 3 23 35 58 72 47
50 59 69 48 75 -8 6 -2 8 20 7 19 -1 36 -6 38 -10z m-179 -44 c20 -32 10 -94
-18 -101 -10 -3 -19 -9 -19 -14 0 -5 -4 -9 -9 -9 -5 0 -3 13 5 30 21 40 15 79
-15 113 l-25 27 32 -11 c18 -6 40 -22 49 -35z m509 -6 c19 -36 10 -85 -17 -93
-10 -4 -19 -11 -19 -16 0 -5 -5 -9 -10 -9 -7 0 -7 7 1 21 6 12 12 39 14 61 2
30 -2 42 -21 57 -32 25 -30 32 6 19 17 -5 37 -23 46 -40z m-99 25 c-28 -32
-31 -69 -8 -113 l21 -40 -29 15 c-32 16 -46 45 -42 85 3 29 38 70 59 70 13 0
13 -2 -1 -17z m-197 -119 c0 -8 -5 -12 -10 -9 -6 4 -8 11 -5 16 9 14 15 11 15
-7z m-160 -155 c0 -10 3 -26 6 -36 5 -16 4 -16 -11 2 -15 19 -17 19 -29 3 -21
-28 -25 -21 -15 20 18 68 19 69 35 48 8 -11 14 -28 14 -37z m71 36 c1 -5 0
-20 0 -32 -1 -11 3 -24 9 -28 5 -3 8 -11 4 -16 -3 -6 -12 -3 -20 8 -13 17 -13
17 -14 0 0 -10 -6 -17 -12 -14 -12 3 -20 71 -11 89 5 11 43 5 44 -7z m89 1 c0
-8 -6 -16 -14 -19 -10 -4 -13 -16 -10 -36 3 -18 1 -31 -5 -31 -6 0 -11 16 -11
35 0 19 -4 35 -10 35 -5 0 -10 7 -10 15 0 10 10 15 30 15 19 0 30 -5 30 -14z
m75 -56 c0 -16 -3 -30 -7 -30 -10 0 -10 44 -1 53 3 4 7 7 7 7 1 0 1 -13 1 -30z
m-27 -2 c-5 -32 -28 -35 -28 -4 0 17 5 26 16 26 10 0 14 -7 12 -22z m-160 -65
c-10 -2 -15 -10 -11 -19 3 -8 0 -14 -6 -14 -6 0 -11 9 -11 20 0 14 6 20 23 19
16 -1 17 -3 5 -6z m137 -1 c6 -4 10 -20 11 -37 0 -16 4 -38 8 -47 5 -11 4 -18
-3 -18 -6 0 -11 6 -11 14 0 8 -5 18 -10 21 -6 4 -10 3 -9 -2 5 -26 -2 -42 -16
-37 -19 8 -21 100 -2 107 17 8 21 8 32 -1z m-140 -52 c3 -5 -1 -10 -9 -10 -9
0 -16 5 -16 10 0 6 4 10 9 10 6 0 13 -4 16 -10z"/>
<path d="M286 981 c-3 -5 1 -11 9 -15 8 -3 15 -1 15 4 0 13 -18 22 -24 11z"/>
<path d="M187 900 c10 -11 19 -20 21 -20 1 0 -2 9 -8 20 -6 11 -15 20 -20 20
-6 0 -2 -9 7 -20z"/>
<path d="M850 120 c6 -11 13 -20 16 -20 2 0 0 9 -6 20 -6 11 -13 20 -16 20 -2
0 0 -9 6 -20z"/>
</g>
</svg>
